<svg xmlns="http://www.w3.org/2000/svg" viewBox="0 0 60 54" fill-rule="nonzero"><path d="M44.5 0C39.06.013 33.848 2.177 30 6.02 26.152 2.177 20.94.013 15.5 0 6.8 0 0 8.4 0 19.12c0 8.964 4.615 20.568 16.73 28.665a.98.98 0 0 0 .249.169c3.947 2.566 8.224 4.584 12.713 6a1.01 1.01 0 0 0 .616 0C52.224 46.877 60 30.768 60 19.12 60 8.4 53.2 0 44.5 0zM30 51.948a50.09 50.09 0 0 1-11.74-5.542 11.6 11.6 0 0 1 .532-7.739 37.13 37.13 0 0 1 3.794-5.4 53.81 53.81 0 0 1 2.044-2.361 1 1 0 1 0-1.463-1.365c-.035.038-.824.887-1.875 2.153-2.343.285-4.666.712-6.957 1.278a4.76 4.76 0 0 1-4.854-.862 5.07 5.07 0 0 1-1.369-4.586 1.81 1.81 0 0 1 1.131-1.413c1.7-.485 2.242.222 2.95 1.447.348.6.936 1.6 2 1.293l11.487-3.3a4.63 4.63 0 0 1 2.4-.09 4.41 4.41 0 0 0-.017.673c.1 1.844 1.256 3.837 3.318 5.844-.066.995-.188 1.8-.2 1.915-.38 1.843-2.455 4.416-4.934 6.117a1 1 0 1 0 1.133 1.649c2.954-2.03 5.27-4.987 5.764-7.38.023-.127.06-.37.1-.685 2.184 1.68 4.53 3.14 7 4.357a1.01 1.01 0 0 0 .451.107 1 1 0 0 0 .452-1.893c-7.977-4.032-10.954-7.883-11.08-10.14-.078-.708.254-1.4.856-1.78 2.778-1.82 7.982-.092 8.034-.075a1 1 0 0 0 .644-1.893 18.51 18.51 0 0 0-3.516-.753 9.8 9.8 0 0 1-.747-5.316 9.49 9.49 0 0 1 3.746-6.368 9.26 9.26 0 0 1 7-1.722c6.577 1 8.6 8.058 7.932 12.736-.57 2.8-2.02 5.32-4.14 7.22a3.03 3.03 0 0 0-.758 1.09c-.7-.62-1.578-1.033-2.507-1.193l-8.794-1.635-.36 1.964 8.794 1.635c.985.184 2.183.685 2.737 2.912.185 1.43.154 2.88-.092 4.3a26.59 26.59 0 0 1-2.3 5.45l-.117.214A46.58 46.58 0 0 1 30 51.948zM50.57 38.58a8.77 8.77 0 0 0 .285-1.068 17.2 17.2 0 0 0 .078-5.258c-.168-1.614-.186-2.266.295-2.7a14.99 14.99 0 0 0 4.763-8.405c.926-6.507-2.415-13.9-9.605-15a11.25 11.25 0 0 0-8.5 2.093 11.46 11.46 0 0 0-4.533 7.7c-.26 1.85-.078 3.734.53 5.5a7.95 7.95 0 0 0-4.06 1.135 3.95 3.95 0 0 0-1.059 1.015 6.48 6.48 0 0 0-3.636.045l-11.054 3.178-.146-.248c-.623-1.078-1.9-3.323-5.235-2.367a3.74 3.74 0 0 0-2.52 2.852 7.09 7.09 0 0 0 1.922 6.51 6.14 6.14 0 0 0 4.373 1.7 8.78 8.78 0 0 0 2.422-.36 42.19 42.19 0 0 1 4.611-.92 32.09 32.09 0 0 0-2.466 3.738c-1.018 2.196-1.4 4.63-1.134 7.034C5.876 37.185 2 27.05 2 19.12 2 9.52 7.93 2 15.5 2a18.84 18.84 0 0 1 13.183 5.543l-2.444 3.043a1 1 0 1 0 1.561 1.252l2.98-3.712A18.67 18.67 0 0 1 44.5 2C52.07 2 58 9.52 58 19.12a31.12 31.12 0 0 1-7.43 19.46zm-3.565-15.907a2.97 2.97 0 0 0 1.448.377 3.01 3.01 0 0 0 .833-.118 3 3 0 0 0 .625-5.508 1 1 0 1 0-.969 1.749 1 1 0 1 1-.968 1.751 1 1 0 1 0-.969 1.749z"/></svg>